# xmcd CD database file
#
# Track frame offsets:
#	150
#	15820
#	33802
#	52265
#	70330
#	90755
#	108075
#	131742
#	153142
#	173640
#	195680
#	215267
#	235805
#
# Disc length: 3407 seconds
#
# Revision: 4
# Processed by: cddbd v1.5.2PL0 Copyright (c) Steve Scherf et al.
# Submitted via: CDex 1.70beta2
#
DISCID=970d4d0d
DTITLE=Holly Cole - Dark Dear Heart
DYEAR=1900
DGENRE=Jazz
TTITLE0=I've just seen a Face
TTITLE1=Make it go away
TTITLE2=Onion Girl
TTITLE3=Dark dear Heart
TTITLE4=You want more
TTITLE5=Timbuktu
TTITLE6=World seems to come and go
TTITLE7=River
TTITLE8=Hold on
TTITLE9=Brighter lonely Day (Run, run, run)
TTITLE10=I told him that my Dog wouldn't run
TTITLE11=All the pretty little Horses
TTITLE12=Bottomless Love
EXTD=
EXTT0=
EXTT1=
EXTT2=
EXTT3=
EXTT4=
EXTT5=
EXTT6=
EXTT7=
EXTT8=
EXTT9=
EXTT10=
EXTT11=
EXTT12=
PLAYORDER=
